:SAMPLES-PER-SECOND 30
:FULLY-SPECIFIED
:DEGREES
1093
root  -55.2026 36.3694 -2.16129 179.336 47.2091 170.343
RightUpLeg  -34.3032 1.45382 -6.74234
RightLeg  52.4559 3.76819 4.87134
RightFoot  -22.6292 -0.698806 -5.51173
RightToes  -1.81608e-008 0 -3.6325e-017
Spine  21.306 -1.66863 -3.71215
Spine1  -1.22599 -2.17584 -2.69353
HEad  -31.8942 38.7292 -29.4431
LeftShoulder1  0.146473 2.84055 -15.2221
LeftArm  3.88566 -35.3633 -61.8712
LeftForeArm  -13.0822 -32.9117 -7.98472
LeftHand  -0.0921203 6.41725 -5.64906
RightShoulder  -0.177134 -4.26173 15.998
RightArm  -11.1434 17.8144 29.4233
RightForeArm  -9.06219 68.0709 31.4965
RightHand  -0.284258 3.33476 -4.02506
LeftUpLeg  -28.1935 9.96576 11.1674
LeftLeg  -0.675804 6.63535 0.696034
LeftFoot  3.55462 2.47816 -18.9921
LeftToes  1.81866e-011 -6.13092e-011 2.52013e-011
1094
root  -54.9545 36.3853 -1.27506 -179.491 42.7577 171.191
RightUpLeg  -34.737 -2.30473 -4.87625
RightLeg  52.1754 3.14385 3.96162
RightFoot  -21.9209 -0.693394 -5.88197
RightToes  -1.81608e-008 0 -3.6325e-017
Spine  21.4669 -1.36829 -4.09093
Spine1  -0.470139 -2.10448 -1.92269
HEad  -32.0968 39.9515 -30.293
LeftShoulder1  0.110148 3.02068 -15.9876
LeftArm  3.76011 -34.2337 -61.4991
LeftForeArm  -13.6545 -32.5488 -7.91419
LeftHand  -0.107635 6.58597 -6.2025
RightShoulder  -0.0658916 -3.7543 17.1061
RightArm  -10.3421 17.4776 29.1034
RightForeArm  -9.04344 67.8932 31.1588
RightHand  -0.279444 3.3834 -3.93517
LeftUpLeg  -28.9026 10.9011 11.3392
LeftLeg  -0.738083 13.2855 -0.156751
LeftFoot  3.9545 2.3913 -17.8639
LeftToes  1.81866e-011 -6.13092e-011 2.52013e-011
1095
root  -54.6414 36.4785 -0.513335 -178.447 38.5768 171.677
RightUpLeg  -35.0712 -6.00899 -3.24897
RightLeg  51.3263 2.75654 3.31833
RightFoot  -21.1637 -0.7052 -6.53698
RightToes  -1.81608e-008 0 -3.6325e-017
Spine  21.5485 -0.854071 -4.30357
Spine1  -0.268873 -1.68997 -1.73053
HEad  -31.8758 40.4457 -30.2122
LeftShoulder1  0.0957008 3.09992 -16.9255
LeftArm  3.53719 -33.3491 -61.4938
LeftForeArm  -13.5659 -31.5527 -7.63971
LeftHand  -0.105147 6.52171 -6.32352
RightShoulder  -0.0850138 -3.83497 17.2147
RightArm  -8.99738 16.4837 29.9577
RightForeArm  -8.96348 67.5655 30.5445
RightHand  -0.232302 3.32861 -3.34092
LeftUpLeg  -29.2743 11.231 11.4727
LeftLeg  0.502457 11.0806 -0.246922
LeftFoot  4.7211 2.50313 -17.82
LeftToes  1.81866e-011 -6.13092e-011 2.52013e-011
1096
root  -54.2922 36.6354 0.132889 -177.174 34.7026 172.09
RightUpLeg  -35.5588 -9.36831 -1.64238
RightLeg  50.0157 2.41343 2.72344
RightFoot  -20.2502 -0.707562 -7.31228
RightToes  -1.81608e-008 0 -3.6325e-017
Spine  21.2295 -0.300408 -4.238
Spine1  -0.271815 -1.07104 -2.10326
HEad  -31.5963 40.079 -29.9629
LeftShoulder1  0.0737326 3.20031 -17.7083
LeftArm  3.17268 -32.4736 -61.2367
LeftForeArm  -12.5744 -30.9899 -7.44146
LeftHand  -0.112467 6.70157 -6.0064
RightShoulder  -0.0845679 -3.82813 17.6175
RightArm  -7.68243 15.1824 30.697
RightForeArm  -9.27863 67.2494 30.017
RightHand  -0.261095 4.01494 -3.50194
LeftUpLeg  -29.0355 11.3304 11.6765
LeftLeg  1.57261 7.39817 -0.156294
LeftFoot  5.15377 2.654 -18.3896
LeftToes  1.81866e-011 -6.13092e-011 2.52013e-011
1097
root  -53.9364 36.8731 0.684112 -175.55 30.5647 172.474
RightUpLeg  -36.1601 -12.6586 -0.00322261
RightLeg  48.0813 1.97101 2.00701
RightFoot  -19.1805 -0.661167 -7.74769
RightToes  -1.81608e-008 0 -3.6325e-017
Spine  20.6699 0.153973 -4.60535
Spine1  -0.467637 -0.731618 -1.75482
HEad  -31.6414 39.7127 -29.9895
LeftShoulder1  -0.00473774 3.52338 -18.379
LeftArm  3.08176 -31.329 -60.7731
LeftForeArm  -11.8965 -31.2468 -7.47582
LeftHand  -0.102663 6.59348 -5.70131
RightShoulder  -0.0569666 -3.7095 18.0996
RightArm  -6.28159 14.1462 30.7968
RightForeArm  -10.1012 66.8901 29.4876
RightHand  -0.259915 3.1166 -3.75228
LeftUpLeg  -28.3027 11.4354 11.8844
LeftLeg  1.87025 6.57417 -0.0969677
LeftFoot  5.42064 2.79598 -19.0536
LeftToes  1.81866e-011 -6.13092e-011 2.52013e-011
1098
root  -53.5291 37.1185 1.17021 -174.033 25.8866 172.57
RightUpLeg  -36.7567 -15.8919 1.4607
RightLeg  46.1276 1.14472 0.949482
RightFoot  -18.2824 -0.613123 -8.0499
RightToes  -1.81608e-008 0 -3.6325e-017
Spine  19.7228 0.471539 -4.87601
Spine1  -0.135002 -0.415404 -1.80382
HEad  -31.5105 38.968 -29.4855
LeftShoulder1  -0.0347674 3.64252 -18.4568
LeftArm  3.49233 -30.433 -60.7322
LeftForeArm  -11.0481 -31.6581 -7.54241
LeftHand  -0.121497 6.81927 -6.18304
RightShoulder  -0.111537 -3.91637 18.8181
RightArm  -5.55711 12.7826 30.7114
RightForeArm  -9.20118 66.6587 29.0072
RightHand  -0.156662 2.58083 -2.50078
LeftUpLeg  -27.1186 11.3246 11.9484
LeftLeg  1.72791 8.83881 0.142632
LeftFoot  5.68175 2.81154 -18.869
LeftToes  1.81866e-011 -6.13092e-011 2.52013e-011
1099
root  -53.144 37.359 1.5852 -172.332 21.1172 172.789
RightUpLeg  -37.441 -18.2221 2.95428
RightLeg  44.0283 -0.255357 -0.578592
RightFoot  -17.4452 -0.531735 -7.75055
RightToes  -1.81608e-008 0 -3.6325e-017
Spine  18.9921 0.756519 -4.95281
Spine1  -0.362266 -0.109567 -1.79969
HEad  -31.2203 38.3001 -29.1168
LeftShoulder1  -0.00130532 3.5091 -18.5436
LeftArm  3.70438 -29.6369 -60.8738
LeftForeArm  -10.0758 -31.9635 -7.57438
LeftHand  -0.114468 6.7703 -5.85988
RightShoulder  -0.189889 -4.20717 19.5527
RightArm  -4.87169 11.4724 30.2704
RightForeArm  -9.22867 66.6568 29.008
RightHand  -0.165842 2.98924 -2.52536
LeftUpLeg  -25.7204 11.7284 12.2398
LeftLeg  0.808788 13.0127 -0.095989
LeftFoot  5.57559 3.00826 -20.2797
LeftToes  1.81866e-011 -6.13092e-011 2.52013e-011
1100
root  -52.8274 37.5956 1.95086 -170.769 15.4704 172.714
RightUpLeg  -38.2713 -21.216 4.20545
RightLeg  42.1336 -1.97224 -2.21099
RightFoot  -16.6018 -0.464982 -7.67434
RightToes  -1.81608e-008 0 -3.6325e-017
Spine  18.514 0.502383 -5.38176
Spine1  -0.277861 -0.469565 -1.38094
HEad  -32.4459 38.0496 -30.0882
LeftShoulder1  -0.0325174 3.62942 -19.1154
LeftArm  3.32843 -29.5161 -61.1574
LeftForeArm  -8.33904 -32.098 -7.52112
LeftHand  -0.134661 6.97435 -6.45365
RightShoulder  -0.140382 -4.01665 19.5354
RightArm  -4.92529 9.96105 30.1825
RightForeArm  -9.00911 67.1368 29.7941
RightHand  -0.180576 3.4139 -2.63258
LeftUpLeg  -24.6161 12.0411 12.2171
LeftLeg  -0.957265 17.1006 -0.888901
LeftFoot  5.22023 2.94756 -20.2828
LeftToes  1.81866e-011 -6.13092e-011 2.52013e-011
1101
root  -52.5343 37.787 2.31535 -169.448 9.65013 172.376
RightUpLeg  -39.1872 -24.3935 5.27803
RightLeg  40.5155 -3.79888 -3.76412
RightFoot  -15.897 -0.412224 -7.64949
RightToes  -1.81608e-008 0 -3.6325e-017
Spine  18.5907 0.338596 -6.17839
Spine1  -0.530657 -0.875727 -0.486344
HEad  -32.4288 37.4966 -30.1266
LeftShoulder1  -0.0360557 3.6356 -19.8926
LeftArm  4.03735 -29.572 -61.2444
LeftForeArm  -7.51181 -32.448 -7.57177
LeftHand  -0.143126 6.99796 -6.9038
RightShoulder  -0.136689 -4.00174 19.4119
RightArm  -5.12645 8.98146 29.5203
RightForeArm  -9.21089 67.6563 30.7353
RightHand  -0.259599 4.00916 -3.43334
LeftUpLeg  -24.0282 11.6054 12.1181
LeftLeg  -1.56163 15.2131 -0.630732
LeftFoot  5.29331 2.39134 -16.4838
LeftToes  1.81866e-011 -6.13092e-011 2.52013e-011
1102
root  -52.3074 37.8728 2.62178 -168.417 3.93819 172.335
RightUpLeg  -40.0482 -27.1531 6.40418
RightLeg  39.7476 -5.75174 -5.39345
RightFoot  -15.6586 -0.376444 -7.17247
RightToes  -1.81608e-008 0 -3.6325e-017
Spine  18.9104 0.193529 -5.53309
Spine1  -0.716169 -0.975777 -0.742696
HEad  -31.813 36.5708 -28.9828
LeftShoulder1  0.114673 3.04364 -18.1721
LeftArm  4.19321 -29.3952 -62.7915
LeftForeArm  -7.29856 -32.5584 -7.5904
LeftHand  -0.178993 7.52724 -6.9405
RightShoulder  -0.231974 -4.32896 20.8413
RightArm  -5.51077 9.00918 27.2805
RightForeArm  -9.47948 67.8487 31.1227
RightHand  -0.375412 5.01342 -4.47494
LeftUpLeg  -23.4695 11.7178 12.631
LeftLeg  -0.527739 12.4131 -0.108194
LeftFoot  5.29452 2.40232 -16.5557
LeftToes  1.81866e-011 -6.13092e-011 2.52013e-011
1103
root  -52.143 37.8915 2.88942 -167.623 -0.931762 172.095
RightUpLeg  -41.0817 -29.2511 7.11765
RightLeg  39.7638 -7.71677 -7.11408
RightFoot  -15.4061 -0.349345 -6.90509
RightToes  -1.81608e-008 0 -3.6325e-017
Spine  19.4534 0.336006 -5.20844
Spine1  -0.966527 -0.797814 -0.754647
HEad  -31.0638 35.7232 -28.3597
LeftShoulder1  0.169132 2.81795 -18.0701
LeftArm  4.94412 -29.7355 -63.387
LeftForeArm  -7.7165 -32.7428 -7.66248
LeftHand  -0.166951 7.36272 -6.87639
RightShoulder  -0.228613 -4.32377 20.5406
RightArm  -6.48451 8.63427 26.3129
RightForeArm  -7.94574 68.0495 31.3296
RightHand  -0.232521 4.17744 -3.11576
LeftUpLeg  -22.7154 12.5487 13.3661
LeftLeg  1.24866 10.8325 -0.0848944
LeftFoot  5.71275 2.38343 -16.0434
LeftToes  1.81866e-011 -6.13092e-011 2.52013e-011
